<?xml version="1.0" standalone="no"?>
<!DOCTYPE svg PUBLIC "-//W3C//DTD SVG 20010904//EN"
 "http://www.w3.org/TR/2001/REC-SVG-20010904/DTD/svg10.dtd">
<svg version="1.0" xmlns="http://www.w3.org/2000/svg"
 width="1200.000000pt" height="1200.000000pt" viewBox="0 0 1200.000000 1200.000000"
 preserveAspectRatio="xMidYMid meet">
<metadata>
Created by potrace 1.11, written by Peter Selinger 2001-2013
</metadata>
<g transform="translate(0.000000,1200.000000) scale(0.100000,-0.100000)"
fill="#000000" stroke="none">
<path d="M3545 11421 c-192 -87 -339 -161 -491 -248 -133 -77 -365 -223 -404
-255 l-25 -20 94 -87 94 -87 -158 -118 c-485 -364 -888 -762 -1226 -1216 -88
-119 -256 -367 -323 -478 l-38 -62 -35 29 c-20 17 -40 28 -44 25 -4 -2 -11 1
-15 7 -4 8 -3 9 4 5 7 -4 12 -3 12 3 0 11 -78 66 -108 76 -18 5 -28 -6 -67
-72 -65 -111 -224 -427 -283 -563 -262 -605 -420 -1252 -472 -1935 -16 -206
-13 -688 5 -909 81 -996 407 -1948 949 -2771 392 -595 862 -1096 1421 -1513
918 -686 1999 -1089 3144 -1172 311 -22 800 -11 1116 26 1621 190 3105 1049
4085 2364 583 783 965 1699 1109 2660 48 325 56 445 56 885 0 440 -8 559 -56
885 -90 602 -289 1234 -550 1750 -77 153 -69 143 -107 124 -17 -8 -35 -21 -39
-27 -8 -12 -19 -18 -95 -51 -21 -10 -38 -21 -38 -26 0 -22 -17 -8 -34 26 -9
20 -65 116 -123 213 -357 595 -802 1110 -1335 1543 -84 68 -166 135 -182 150
l-31 27 25 9 c14 5 49 37 78 71 30 34 57 59 62 56 4 -3 14 2 21 11 15 18 19
15 -141 128 -150 106 -334 222 -495 312 -144 80 -421 217 -511 252 l-50 20 3
-61 c2 -45 0 -57 -7 -42 -6 14 -8 -4 -4 -60 3 -58 2 -75 -6 -60 -9 17 -10 15
-7 -12 4 -37 2 -38 -33 -18 -14 8 -29 14 -35 14 -5 0 16 -13 48 -29 32 -15 54
-31 49 -34 -5 -3 -12 -54 -15 -113 -12 -193 -41 -431 -48 -398 -5 22 -7 24 -8
8 -1 -21 -4 -21 -86 18 -574 265 -1170 420 -1805 469 -184 14 -614 15 -790 1
-505 -41 -998 -151 -1452 -324 l-68 -26 -2 192 -2 192 -6 -200 -6 -200 -2 185
c-2 210 8 399 19 360 l7 -25 1 28 c1 15 -1 27 -4 27 -6 0 -275 -102 -327 -124
l-38 -16 0 135 c0 102 -3 135 -12 135 -7 -1 -80 -31 -163 -69z m512 -143 c-2
-13 -4 -3 -4 22 0 25 2 35 4 23 2 -13 2 -33 0 -45z m4300 -200 c-2 -13 -4 -3
-4 22 0 25 2 35 4 23 2 -13 2 -33 0 -45z m-4310 -180 c-2 -35 -3 -7 -3 62 0
69 1 97 3 63 2 -35 2 -91 0 -125z m4300 55 c-3 -10 -5 -2 -5 17 0 19 2 27 5
18 2 -10 2 -26 0 -35z m-10 -110 c-3 -10 -5 -2 -5 17 0 19 2 27 5 18 2 -10 2
-26 0 -35z m-10 -90 c-3 -10 -5 -4 -5 12 0 17 2 24 5 18 2 -7 2 -21 0 -30z
m-10 -90 c-3 -10 -5 -4 -5 12 0 17 2 24 5 18 2 -7 2 -21 0 -30z m-2182 -283
c257 -14 455 -34 671 -70 286 -48 615 -134 762 -200 84 -39 88 -51 62 -194
-27 -143 -27 -144 -56 -162 -22 -15 -30 -14 -133 25 -301 113 -644 187 -1091
238 -195 22 -842 25 -1015 5 -157 -18 -323 -48 -454 -82 -134 -35 -143 -36
-164 -12 -18 19 -77 230 -77 273 0 38 29 58 112 79 330 84 901 125 1383 100z
m-3284 -1001 c165 -115 166 -122 31 -262 -138 -143 -243 -265 -344 -398 -102
-135 -329 -471 -418 -619 -84 -138 -137 -208 -171 -226 -26 -13 -29 -12 -39 5
-7 14 -4 44 15 113 80 311 256 674 508 1053 196 293 272 385 320 385 13 0 57
-23 98 -51z m3485 -93 c83 -7 160 -18 171 -24 28 -15 34 -34 40 -123 5 -68 4
-78 -13 -86 -12 -7 -90 -5 -224 4 -143 10 -318 13 -575 10 -203 -2 -375 -2
-382 0 -17 6 -66 169 -58 193 4 12 19 22 38 25 141 26 726 27 1003 1z m2999
-23 c92 -61 266 -231 372 -363 86 -107 265 -368 323 -472 37 -67 37 -102 0
-106 -20 -2 -44 18 -131 110 -156 167 -302 331 -374 421 -110 137 -315 425
-315 441 0 31 53 17 125 -31z m-6142 -900 c6 -34 -1 -291 -9 -304 -12 -21 -74
-7 -159 36 -110 56 -151 86 -142 107 3 9 41 43 84 75 154 117 215 140 226 86z
m2881 -1893 c33 -5 75 -16 93 -25 18 -8 50 -23 70 -32 43 -20 163 -129 163
-149 0 -8 4 -14 9 -14 15 0 48 -92 61 -168 21 -127 -5 -242 -80 -357 -35 -54
-106 -125 -125 -125 -4 0 -13 -6 -21 -14 -8 -8 -40 -25 -71 -37 -84 -33 -262
-33 -345 0 -167 66 -285 227 -303 412 -8 77 14 198 46 261 28 55 142 169 194
192 22 10 54 25 72 33 62 29 151 37 237 23z m4504 -2985 c20 -14 42 -25 49
-25 7 0 13 -4 13 -9 0 -5 8 -12 19 -16 10 -3 32 -18 48 -34 17 -16 51 -41 76
-55 25 -15 48 -33 50 -41 3 -7 15 -15 27 -17 11 -2 20 -7 20 -11 -1 -5 17 -20
39 -35 46 -30 50 -16 -51 -185 -266 -446 -630 -892 -997 -1223 l-113 -102 -27
16 c-30 19 -46 33 -121 103 -28 27 -63 57 -77 66 -14 9 -54 51 -88 92 l-62 75
212 211 c117 115 258 264 315 330 198 232 398 510 555 773 37 61 69 112 72
112 2 0 21 -11 41 -25z m-8688 -615 c57 -74 135 -172 172 -216 46 -55 66 -87
62 -98 -3 -9 -10 -16 -15 -16 -16 0 -52 -38 -46 -47 8 -12 -26 -40 -44 -38 -8
2 -15 -5 -15 -14 -2 -32 -9 -46 -29 -51 -11 -3 -25 -17 -32 -30 -7 -14 -13
-20 -14 -15 0 6 -4 1 -8 -10 -5 -11 -12 -20 -17 -21 -25 -2 -42 -17 -37 -31 4
-11 2 -14 -5 -9 -7 4 -12 3 -12 -3 0 -6 -16 -26 -35 -45 l-34 -35 -67 72
c-148 159 -378 464 -372 493 2 9 22 26 45 39 24 12 49 27 56 34 8 6 17 7 21 3
4 -4 6 0 4 8 -2 8 3 14 10 13 6 -2 12 2 12 7 0 6 6 10 13 10 20 0 76 29 84 44
5 7 24 21 43 31 18 10 40 24 48 31 7 8 23 14 34 14 12 0 18 3 15 7 -4 3 3 12
16 18 27 15 17 24 147 -145z m5652 -1837 c6 -16 12 -31 13 -35 2 -5 3 -9 5
-10 1 -2 4 -16 6 -33 3 -16 9 -35 15 -41 5 -6 6 -14 2 -17 -3 -4 -1 -13 5 -20
7 -8 9 -17 6 -20 -3 -3 -2 -12 2 -19 4 -7 9 -19 10 -28 4 -20 13 -70 18 -95
10 -45 17 -92 19 -125 l2 -34 -75 -23 c-285 -88 -646 -158 -1030 -200 -202
-22 -834 -25 -1020 -5 -307 33 -527 67 -723 113 l-87 21 6 71 c3 40 7 86 9
102 11 75 16 103 25 150 6 28 13 59 14 70 6 40 29 115 34 115 3 0 85 -16 181
-35 388 -76 674 -99 1116 -92 495 8 869 61 1315 186 58 16 108 30 113 30 4 1
13 -11 19 -26z"/>
<path d="M8210 11240 c8 -5 20 -10 25 -10 6 0 3 5 -5 10 -8 5 -19 10 -25 10
-5 0 -3 -5 5 -10z"/>
<path d="M8323 11075 c0 -22 2 -30 4 -17 2 12 2 30 0 40 -3 9 -5 -1 -4 -23z"/>
<path d="M8312 10950 c0 -19 2 -27 5 -17 2 9 2 25 0 35 -3 9 -5 1 -5 -18z"/>
<path d="M8302 10840 c0 -19 2 -27 5 -17 2 9 2 25 0 35 -3 9 -5 1 -5 -18z"/>
<path d="M8292 10745 c0 -16 2 -22 5 -12 2 9 2 23 0 30 -3 6 -5 -1 -5 -18z"/>
</g>
</svg>
